<svg width="320" height="305" viewBox="0 0 320 305" fill="none" xmlns="http://www.w3.org/2000/svg">
<path d="M0 197V0.529989H39.96V197H0ZM59.94 197V0.529989H69.93V197H59.94ZM79.92 197V0.529989H89.91V197H79.92ZM25.974 246.617H33.633L42.957 292.238L52.614 251.945H57.942L69.93 291.905C72.372 276.587 73.815 266.486 74.259 261.602C74.925 256.718 75.258 252.389 75.258 248.615V246.617H83.583C81.141 265.709 78.033 284.579 74.259 303.227H65.601L55.278 266.597L45.288 303.227H37.296L25.974 246.617ZM109.916 197V0.529989H119.906V197H109.916ZM149.876 197V0.529989H189.836V197H149.876ZM199.826 197V0.529989H209.816V197H199.826ZM164.861 304.226C159.755 304.226 155.204 303.005 151.208 300.563C147.434 298.121 144.437 294.68 142.217 290.24C139.775 285.8 138.554 280.694 138.554 274.922C138.554 269.15 139.775 264.044 142.217 259.604C144.437 255.164 147.434 251.723 151.208 249.281C155.204 246.617 159.755 245.285 164.861 245.285C169.967 245.285 174.407 246.617 178.181 249.281C182.177 251.723 185.285 255.164 187.505 259.604C189.725 264.044 190.835 269.15 190.835 274.922C190.835 280.694 189.725 285.8 187.505 290.24C185.285 294.68 182.177 298.121 178.181 300.563C174.407 303.005 169.967 304.226 164.861 304.226ZM164.861 296.9C167.969 296.9 170.855 295.901 173.519 293.903C175.961 292.127 177.959 289.574 179.513 286.244C180.845 282.692 181.511 278.807 181.511 274.589C181.511 268.151 179.957 262.934 176.849 258.938C173.741 254.942 169.745 252.944 164.861 252.944C159.977 252.944 155.981 254.942 152.873 258.938C149.765 262.934 148.211 268.151 148.211 274.589C148.211 278.807 148.877 282.692 150.209 286.244C151.763 289.574 153.761 292.127 156.203 293.903C158.645 295.901 161.531 296.9 164.861 296.9ZM219.832 197V0.529989H229.822V197H219.832ZM249.802 197V0.529989H269.782V197H249.802ZM289.762 197V0.529989H319.732V197H289.762ZM273.112 304.559C271.336 304.559 269.671 303.893 268.117 302.561C266.785 301.007 266.119 299.342 266.119 297.566C266.119 295.568 266.785 293.903 268.117 292.571C269.671 291.239 271.336 290.573 273.112 290.573C275.11 290.573 276.775 291.239 278.107 292.571C279.661 293.903 280.438 295.568 280.438 297.566C280.438 299.342 279.661 301.007 278.107 302.561C276.775 303.893 275.11 304.559 273.112 304.559Z" fill="black"/>
</svg>
